<svg xmlns="http://www.w3.org/2000/svg" xmlns:xlink="http://www.w3.org/1999/xlink" width="1918.02" height="272.8" viewBox="0 0 1918.02 272.8"><defs><style>.a{fill:url(#a);}.b{fill:#9cc544;}.c,.d{fill:#ffeec2;}.d{font-size:48.505px;font-family:UnimedSlab-2020-Book, 'Unimed Slab - \32 020';}</style><linearGradient id="a" x1="0.5" x2="0.5" y2="1.34" gradientUnits="objectBoundingBox"><stop offset="0" stop-color="#009156"/><stop offset="1" stop-color="#005c51"/></linearGradient></defs><g transform="translate(-1.98 -4043.774)"><rect class="a" width="1918.02" height="272.8" transform="translate(1.98 4043.774)"/><g transform="translate(287.232 -365.261)"><path class="b" d="M502.681,4532.859c0,8.723-7.051,14.54-19.918,14.54a50.447,50.447,0,0,1-17.009-3.172l1.851-12.867H477.3l.266,5.816a28.624,28.624,0,0,0,4.494.441c4.76,0,6.963-1.233,6.963-3.262,0-5.992-22.65-3.523-22.65-19.3,0-8.459,7.491-14.188,19.388-14.188a50.618,50.618,0,0,1,15.423,2.644l-2.115,12.6H489.2l-.088-5.729c-.883-.088-1.675-.176-2.469-.176-4.054,0-6.433,1.5-6.433,3.526C480.208,4520.872,502.681,4517.346,502.681,4532.859Z"/><path class="b" d="M549.836,4543.7a38.478,38.478,0,0,1-17.1,3.7c-16.3,0-25.382-8.988-25.382-23.178,0-13.66,8.813-23.354,23.089-23.354,12.075,0,19.214,6.785,19.214,18.6a35.219,35.219,0,0,1-1.058,7.931H521.723c1.5,6.169,6.168,8.99,13.835,8.99a32.762,32.762,0,0,0,11.545-2.117Zm-28.025-25.468h14.894v-.617c0-4.231-2.557-7.227-6.787-7.227C525.864,4510.385,522.867,4513.469,521.811,4518.229Z"/><path class="b" d="M588.53,4501.924,586.415,4514a20.764,20.764,0,0,0-4.848-.618,17.337,17.337,0,0,0-7.579,1.5v21.151h6.082v10.136H554.776V4536.03h5.376v-20.18c0-2.822-1.322-4.056-3.966-4.056h-1.41v-9.076a19.418,19.418,0,0,1,8.019-1.851c4.5,0,7.755,1.321,9.606,4.054a15.019,15.019,0,0,1,10.488-4.054A16.515,16.515,0,0,1,588.53,4501.924Z"/><path class="b" d="M640,4511.53l-4.495.618-11.985,34.018H607.657l-11.721-34.018-4.582-.618v-9.43H614.8v10.136h-3.878l5.641,20,5.728-20h-3.7V4502.1H640Z"/><path class="b" d="M668.387,4536.03v10.136H643.535V4536.03h5.552v-23.794l-5.552-.706v-9.43h19.388v33.93ZM647.5,4487.912c0-4.76,3.349-8.019,8.373-8.019s8.372,3.259,8.372,8.019c0,4.934-3.35,8.108-8.372,8.108S647.5,4492.846,647.5,4487.912Z"/><path class="b" d="M706.551,4558.327c0,5.992-5.112,11.016-14.542,11.016a33.184,33.184,0,0,1-10.663-1.85l2.379-8.726a19.352,19.352,0,0,0,5.553,1.059c3,0,4.582-.881,4.582-2.91,0-1.76-1.939-2.907-5.375-3.435l.793-6.963c-9.958-2.379-16.657-9.87-16.657-21.415,0-14.63,10.4-24.236,26.175-24.236a53.421,53.421,0,0,1,11.28,1.321l-1.234,16.393H698.531l-.528-6.875c-6.346.794-11.192,4.848-11.192,12.427,0,7.315,5.288,11.9,13.747,11.9a28.007,28.007,0,0,0,7.755-1.145l2.291,10.4a41.906,41.906,0,0,1-11.985,2.115l-.176,2.026C703.467,4550.044,706.551,4553.305,706.551,4558.327Z"/><path class="b" d="M713.517,4524.925c0-14.892,8.374-24.058,22.738-24.058,13.837,0,22.385,8.02,22.385,22.914,0,14.188-8.636,23.618-22.562,23.618C722.067,4547.4,713.517,4539.027,713.517,4524.925Zm30.935-.616c0-8.019-3-12.691-8.2-12.691-5.377,0-8.548,4.672-8.548,12.691,0,7.755,3.083,12.339,8.371,12.339S744.452,4532.064,744.452,4524.309Z"/><path class="b" d="M800.244,4532.859c0,8.723-7.051,14.54-19.918,14.54a50.443,50.443,0,0,1-17.009-3.172l1.851-12.867h9.694l.266,5.816a28.625,28.625,0,0,0,4.494.441c4.76,0,6.963-1.233,6.963-3.262,0-5.992-22.65-3.523-22.65-19.3,0-8.459,7.491-14.188,19.388-14.188a50.617,50.617,0,0,1,15.423,2.644l-2.115,12.6h-9.87l-.088-5.729c-.883-.088-1.675-.176-2.469-.176-4.054,0-6.433,1.5-6.433,3.526C777.771,4520.872,800.244,4517.346,800.244,4532.859Z"/><path class="c" d="M589.861,4600.055c0,14.276-9.165,23.706-21.856,23.706a23.494,23.494,0,0,1-7.491-1.145v11.809l5.992.7v9.43h-25.38v-10.134h5.464v-42.3c0-3.085-1.323-3.968-3.79-3.968h-1.41v-9.075a17.808,17.808,0,0,1,7.931-1.851c3.613,0,6.523,1.144,8.461,3.259a17.443,17.443,0,0,1,10.841-3.259C581.224,4577.23,589.861,4585.777,589.861,4600.055Zm-14.365.352c0-7.579-3.7-12.251-9.518-12.251a11.146,11.146,0,0,0-5.464,1.323v22.737a13.36,13.36,0,0,0,5.2,1.058C571.882,4613.274,575.5,4608.339,575.5,4600.407Z"/><path class="c" d="M627.853,4578.286l-2.115,12.075a20.761,20.761,0,0,0-4.848-.618,17.312,17.312,0,0,0-7.579,1.5v21.15h6.082v10.136H594.1v-10.136h5.376v-20.18c0-2.821-1.323-4.056-3.966-4.056H594.1v-9.075a19.4,19.4,0,0,1,8.019-1.851c4.5,0,7.755,1.32,9.606,4.053a15.017,15.017,0,0,1,10.488-4.053A16.5,16.5,0,0,1,627.853,4578.286Z"/><path class="c" d="M629.883,4601.288c0-14.893,8.373-24.058,22.737-24.058,13.838,0,22.386,8.019,22.386,22.913,0,14.188-8.636,23.618-22.65,23.618C638.433,4623.761,629.883,4615.389,629.883,4601.288Zm30.935-.617c0-8.019-3-12.691-8.2-12.691-5.376,0-8.547,4.672-8.547,12.691,0,7.756,3.083,12.339,8.283,12.339C657.732,4613.01,660.818,4608.427,660.818,4600.671Zm9.782-40.98-17.361,14.982-7.4-7.137,15.334-17.187Z"/><path class="c" d="M727.715,4600.055c0,14.276-9.166,23.706-21.857,23.706a23.494,23.494,0,0,1-7.491-1.145v11.809l5.992.7v9.43h-25.38v-10.134h5.464v-42.3c0-3.085-1.323-3.968-3.79-3.968h-1.41v-9.075a17.808,17.808,0,0,1,7.931-1.851c3.613,0,6.523,1.144,8.461,3.259a17.443,17.443,0,0,1,10.841-3.259C719.077,4577.23,727.715,4585.777,727.715,4600.055Zm-14.366.352c0-7.579-3.7-12.251-9.518-12.251a11.146,11.146,0,0,0-5.464,1.323v22.737a13.36,13.36,0,0,0,5.2,1.058C709.735,4613.274,713.349,4608.339,713.349,4600.407Z"/><path class="c" d="M765.706,4578.286l-2.115,12.075a20.762,20.762,0,0,0-4.848-.618,17.312,17.312,0,0,0-7.579,1.5v21.15h6.082v10.136H731.952v-10.136h5.376v-20.18c0-2.821-1.323-4.056-3.966-4.056h-1.41v-9.075a19.4,19.4,0,0,1,8.019-1.851c4.5,0,7.755,1.32,9.606,4.053a15.019,15.019,0,0,1,10.488-4.053A16.5,16.5,0,0,1,765.706,4578.286Z"/><path class="c" d="M793.911,4612.392v10.136H769.059v-10.136h5.552V4588.6l-5.552-.706v-9.43h19.388v33.93Zm-20.887-48.118c0-4.759,3.35-8.019,8.374-8.019s8.371,3.26,8.371,8.019c0,4.935-3.349,8.108-8.371,8.108S773.024,4569.209,773.024,4564.274Z"/><path class="c" d="M798.144,4601.288c0-14.893,8.374-24.058,22.738-24.058,13.837,0,22.385,8.019,22.385,22.913,0,14.188-8.636,23.618-22.562,23.618C806.694,4623.761,798.144,4615.389,798.144,4601.288Zm30.935-.617c0-8.019-3-12.691-8.2-12.691-5.377,0-8.548,4.672-8.548,12.691,0,7.756,3.083,12.339,8.371,12.339S829.079,4608.427,829.079,4600.671Z"/><path class="c" d="M884.871,4609.221c0,8.723-7.051,14.54-19.918,14.54a50.432,50.432,0,0,1-17.009-3.172l1.851-12.867h9.694l.266,5.817a28.612,28.612,0,0,0,4.494.44c4.76,0,6.963-1.233,6.963-3.261,0-5.993-22.65-3.524-22.65-19.3,0-8.46,7.491-14.188,19.388-14.188a50.63,50.63,0,0,1,15.423,2.643l-2.115,12.6h-9.87l-.088-5.728c-.883-.088-1.675-.176-2.469-.176-4.054,0-6.433,1.5-6.433,3.525C862.4,4597.234,884.871,4593.709,884.871,4609.221Z"/><text class="d" transform="translate(459.768 4488.31)"><tspan x="0" y="0">Rede de</tspan></text></g></g></svg>