<svg xmlns="http://www.w3.org/2000/svg" width="162.511" height="74.753" viewBox="0 0 162.511 74.753"><defs><style>.a{fill:#007d3c;}.a,.b{fill-rule:evenodd;}.b,.c{fill:#fff;}</style></defs><path class="a" d="M108.449,123.472A11.511,11.511,0,0,1,96.88,112.05V62A11.51,11.51,0,0,1,108.449,50.58h137.49A11.51,11.51,0,0,1,257.508,62v61.47Z" transform="translate(-95.939 -49.649)"/><path class="b" d="M245.722,49.42H108.231A12.445,12.445,0,0,0,95.722,61.773v50.048a12.446,12.446,0,0,0,12.509,12.352h150v-62.4A12.445,12.445,0,0,0,245.722,49.42m0,1.862a10.556,10.556,0,0,1,10.624,10.491v60.537H108.231a10.556,10.556,0,0,1-10.621-10.49V61.773a10.555,10.555,0,0,1,10.621-10.491Z" transform="translate(-95.722 -49.42)"/><rect class="c" width="0.98" height="40.006" transform="translate(112.878 17.373)"/><rect class="c" width="127.326" height="0.966" transform="translate(17.592 39.922)"/><path class="b" d="M256.766,74.753h5.618L270.8,85.84h-5.611l4.211,5.544h-7.015l-4.216-5.542h2.807L256.767,80.3h4.205Z" transform="translate(-125.879 -54.421)"/><path class="b" d="M253.532,74.753h-5.617L239.5,85.84h5.612L240.9,91.384h7.018l4.212-5.542h-2.806l4.209-5.546h-4.207Z" transform="translate(-122.646 -54.421)"/><path class="b" d="M187.289,111.769v-7.733h1.553l1.852,5.474c.171.51.3.891.374,1.144q.134-.421.419-1.24l1.885-5.379h1.387v7.733h-1V105.3l-2.285,6.469h-.934l-2.26-6.588v6.588Zm12.72-.7a3.6,3.6,0,0,1-1.032.635,2.978,2.978,0,0,1-1.062.186,2.084,2.084,0,0,1-1.438-.45,1.468,1.468,0,0,1-.5-1.148,1.523,1.523,0,0,1,.189-.751,1.574,1.574,0,0,1,.5-.543,2.4,2.4,0,0,1,.692-.311,7.647,7.647,0,0,1,.857-.142,8.853,8.853,0,0,0,1.717-.326c0-.129.006-.213.006-.246a1.033,1.033,0,0,0-.274-.815,1.628,1.628,0,0,0-1.1-.32,1.722,1.722,0,0,0-1,.235,1.429,1.429,0,0,0-.479.834l-.941-.129a2.276,2.276,0,0,1,.423-.965,1.869,1.869,0,0,1,.853-.565,3.853,3.853,0,0,1,1.291-.2,3.459,3.459,0,0,1,1.185.169,1.573,1.573,0,0,1,.669.425,1.51,1.51,0,0,1,.3.648,5.407,5.407,0,0,1,.048.873v1.259a13.679,13.679,0,0,0,.059,1.673,2.146,2.146,0,0,0,.236.677H200.2a2.094,2.094,0,0,1-.186-.7m-.076-2.106a7.214,7.214,0,0,1-1.575.356,3.681,3.681,0,0,0-.842.189.855.855,0,0,0-.38.306.824.824,0,0,0,.157,1.079,1.279,1.279,0,0,0,.853.252,2.018,2.018,0,0,0,.99-.239,1.48,1.48,0,0,0,.636-.652,2.242,2.242,0,0,0,.155-.945Zm6.159.756.94.129a2.389,2.389,0,0,1-.79,1.5,2.331,2.331,0,0,1-1.567.543,2.448,2.448,0,0,1-1.868-.75,3.018,3.018,0,0,1-.706-2.149,3.87,3.87,0,0,1,.3-1.586,2.085,2.085,0,0,1,.927-1.018,2.769,2.769,0,0,1,1.352-.34,2.36,2.36,0,0,1,1.508.461,2.1,2.1,0,0,1,.753,1.31l-.93.14a1.526,1.526,0,0,0-.474-.849,1.234,1.234,0,0,0-.82-.285,1.51,1.51,0,0,0-1.183.513,2.421,2.421,0,0,0-.454,1.626,2.494,2.494,0,0,0,.438,1.638,1.439,1.439,0,0,0,1.144.511,1.352,1.352,0,0,0,.945-.343,1.672,1.672,0,0,0,.481-1.051m5.632.238,1,.129a2.373,2.373,0,0,1-.868,1.331,2.64,2.64,0,0,1-1.62.474,2.606,2.606,0,0,1-1.969-.756,2.929,2.929,0,0,1-.727-2.119,3.061,3.061,0,0,1,.734-2.189,2.5,2.5,0,0,1,1.908-.78,2.432,2.432,0,0,1,1.854.763,3.015,3.015,0,0,1,.721,2.149c0,.056,0,.14-.006.253h-4.228a2.133,2.133,0,0,0,.529,1.41,1.579,1.579,0,0,0,1.183.49,1.472,1.472,0,0,0,.9-.276,1.818,1.818,0,0,0,.592-.88m-3.149-1.522h3.161a1.883,1.883,0,0,0-.362-1.061,1.478,1.478,0,0,0-1.189-.549,1.537,1.537,0,0,0-1.112.437,1.736,1.736,0,0,0-.5,1.173m5.361-4.4h.962v1.08h-.962Zm0,2.128h.962v5.605h-.962Zm2.069,2.8a2.857,2.857,0,0,1,.877-2.3,2.66,2.66,0,0,1,1.784-.621,2.567,2.567,0,0,1,1.912.756,2.85,2.85,0,0,1,.742,2.087,3.653,3.653,0,0,1-.328,1.7,2.308,2.308,0,0,1-.957.961,2.808,2.808,0,0,1-1.369.343,2.57,2.57,0,0,1-1.926-.753,2.977,2.977,0,0,1-.735-2.169m.984,0a2.352,2.352,0,0,0,.475,1.608,1.607,1.607,0,0,0,2.4,0,2.411,2.411,0,0,0,.475-1.636,2.278,2.278,0,0,0-.48-1.57,1.609,1.609,0,0,0-2.392,0,2.345,2.345,0,0,0-.475,1.6m.875-3.5.7-1.479h1.269l-1.17,1.479Z" transform="translate(-112.869 -60.194)"/><path class="b" d="M220.9,85.513c0,1.088-.18,2.377-1.4,2.377-1.235,0-1.439-1.29-1.439-2.511,0-1.2.2-2.4,1.4-2.4,1.259,0,1.439,1.2,1.439,2.535m5.513,5.843V74.689h-5.671v6.578h-.045a3.985,3.985,0,0,0-3.535-1.755c-3.531,0-4.994,2.733-4.994,5.867,0,3.355,1.4,6.24,5.152,6.24a3.654,3.654,0,0,0,3.783-2.376h.042v2.112Z" transform="translate(-117.527 -54.408)"/><path class="b" d="M207.753,88.1v-.688c0-3.912-1.6-6.71-6.143-6.71-4.747,0-7.268,1.955-7.268,5.844,0,4,2.52,6.264,7.268,6.264a18.244,18.244,0,0,0,5.288-.665v-3a8.823,8.823,0,0,1-3.849.733c-1.664,0-3.038-.334-3.128-1.779ZM199.9,85.652c-.066-.909.226-2.287,1.53-2.287,1.283,0,1.419,1.4,1.419,2.287Z" transform="translate(-114.19 -55.595)"/><path class="b" d="M167.1,92.542h5.672V85.874c0-.665,0-1.578,1.011-1.578.991,0,.991.913.991,1.578v6.667h5.67V85.874c0-.665,0-1.578.989-1.578,1.013,0,1.013.913,1.013,1.578v6.667h5.672V85.608c0-2.267,0-4.911-4.141-4.911-1.395,0-3.376.645-3.757,1.98h-.046c-.45-1.38-2.092-1.98-3.667-1.98a3.978,3.978,0,0,0-4.006,2.267h-.046v-2H167.1Z" transform="translate(-109.089 -55.595)"/><path class="b" d="M163.511,74.69h-5.672v3.866h5.672Zm-5.672,16.666h5.674V79.778h-5.674Z" transform="translate(-107.354 -54.409)"/><path class="b" d="M138.766,92.542h5.671V85.874c0-.665,0-1.578,1.013-1.578.989,0,.989.913.989,1.578v6.667h5.67V84.5c0-2.245-1.1-3.8-4.117-3.8a3.876,3.876,0,0,0-3.822,2.267h-.046v-2h-5.358Z" transform="translate(-103.782 -55.595)"/><path class="b" d="M123.4,76.13h-6.031v9.42c0,4.576,3.443,6.354,7.831,6.354,4.747,0,7.876-1.642,7.876-6.663V76.13h-5.895v9.222c0,1.51-.34,2.555-1.912,2.555-1.439,0-1.869-1.112-1.869-2.577Z" transform="translate(-99.776 -54.693)"/></svg>