<svg xmlns="http://www.w3.org/2000/svg" width="301.5" height="44.374" viewBox="0 0 301.5 44.374"><defs><style>.a{fill:#196354;}.b{fill:#feab2e;}.c{fill:#60ad6b;}</style></defs><g transform="translate(150.75 22.187)"><g transform="translate(-150.75 -22.187)"><path class="a" d="M125.61,3.865a11.382,11.382,0,0,0-6.062,1.748q4.849,4.522,9.537,9.708-4.689,5.184-9.537,9.708A11.452,11.452,0,1,0,125.61,3.865Z" transform="translate(164.433 5.316)"/><path class="b" d="M131.092,14.309Q126.4,9.121,121.555,4.6a11.518,11.518,0,0,0-3.466,3.352,6.357,6.357,0,0,1,0,12.713,11.49,11.49,0,0,0,3.466,3.352Q126.4,19.493,131.092,14.309Z" transform="translate(162.426 6.329)"/><path class="a" d="M119.206,18.725a6.357,6.357,0,0,0,0-12.713,11.439,11.439,0,0,0,0,12.713Z" transform="translate(161.309 8.269)"/><path class="c" d="M109.874,41.79v-10.6a12.487,12.487,0,0,0,4.561.936,16.062,16.062,0,0,0,0-32.123,15.915,15.915,0,0,0-9.763,3.3,2.581,2.581,0,1,0,3.14,4.1,10.9,10.9,0,1,1,6.623,19.557,9.891,9.891,0,0,1-4.561-1.48v-.926a2.581,2.581,0,1,0-5.162,0V41.79a2.581,2.581,0,1,0,5.162,0" transform="translate(142.58 0.002)"/><path class="c" d="M108.354,27.807a16.065,16.065,0,1,0-.009-23.47,16.066,16.066,0,1,0,.009,23.47M99.848,5.466a10.875,10.875,0,0,1,8.062,7.81,2.581,2.581,0,1,0,4.991-1.321,16.122,16.122,0,0,0-1.383-3.5,10.9,10.9,0,1,1-2.915,9.568,2.583,2.583,0,1,0-5.083.919,16.1,16.1,0,0,0,1.66,4.746,10.9,10.9,0,1,1-7.8-18.512,10.753,10.753,0,0,1,2.47.287" transform="translate(111.843 0)"/><path class="c" d="M86.523,32.124a16.077,16.077,0,0,1-16.06-16.06v0A16.076,16.076,0,0,1,86.523,0h.026a15.915,15.915,0,0,1,9.737,3.3,2.583,2.583,0,1,1-3.143,4.1,11.022,11.022,0,0,0-1-.682l-.069-.038a10.865,10.865,0,0,0-5.54-1.52h-.017a10.9,10.9,0,1,0,0,21.795h.017a10.912,10.912,0,0,0,5.54-1.52l.069-.038a11.023,11.023,0,0,0,1-.682,2.583,2.583,0,1,1,3.143,4.1,15.93,15.93,0,0,1-9.737,3.3h-.026Z" transform="translate(96.919 0.002)"/><path class="a" d="M2.737,21.617c.466,4.074,5.064,5.939,9.606,5.939,4.6,0,9.314-1.865,9.314-5.882,0-4.832-5.53-5.181-9.257-5.646C6.81,15.388.815,14.4.815,8.635.815,2.813,6.4.658,12.167.658c5.822,0,11.352,2.387,11.352,7.395H20.959c0-3.494-4.366-5.067-8.732-5.067-4.25,0-9.141,1.632-8.851,5.589,0,4.307,6.114,4.715,9.374,5.007,5.765.755,11.761,1.805,11.587,8.091,0,5.589-5.706,8.21-12.053,8.21C6.345,29.883.641,27.555,0,21.617Z" transform="translate(0 0.905)"/><path class="a" d="M25.852,29.685C18.457,29.685,11,24.91,11,15.19S18.4.633,25.792.633c7.335,0,14.671,4.891,14.671,14.557C40.463,24.794,33.187,29.685,25.852,29.685Zm.057-2.561c5.939-.059,11.761-4.017,11.761-11.934A11.577,11.577,0,0,0,25.852,3.137c-6,0-12.053,3.96-12.053,12.053C13.8,23.224,19.913,27.181,25.909,27.124Z" transform="translate(15.137 0.871)"/><path class="a" d="M23.677,1.1c4.95-.991,6.58,1.454,6.58,5.471C32.119,2.614,35.671.633,40.562.633c5.064,0,7.744,2.8,8.673,6.813C50.807,3.02,55,.633,60.124.633c7.219,0,9.255,5.532,9.255,11.82v9.956c0,3.259-.29,5.414,4.076,4.656v2.212c-5.589,1.107-6.927-1.337-6.927-6.461V12.453c0-5.067-1.632-9.374-7.219-9.374-5.765.057-9.141,4.017-9.141,9.78V29.276h-2.8V12.859c0-5.357-1.689-9.723-7.509-9.723s-9.431,3.9-9.431,9.723V29.276h-2.8V9.657c0-5.121.233-6.927-3.96-6.461Z" transform="translate(32.567 0.871)"/><path class="a" d="M59.629,29.685c-7.395,0-14.847-4.775-14.847-14.5S52.174.633,59.569.633C66.9.633,74.24,5.524,74.24,15.19,74.24,24.794,66.964,29.685,59.629,29.685Zm.057-2.561c5.939-.059,11.761-4.017,11.761-11.934A11.577,11.577,0,0,0,59.629,3.137c-6,0-12.053,3.96-12.053,12.053C47.576,23.224,53.69,27.181,59.686,27.124Z" transform="translate(61.596 0.871)"/><path class="a" d="M60.63,21.617c.468,4.074,5.067,5.939,9.606,5.939,4.6,0,9.317-1.865,9.317-5.882,0-4.832-5.532-5.181-9.257-5.646-5.589-.639-11.585-1.63-11.585-7.392C58.711,2.813,64.3.658,70.063.658c5.822,0,11.352,2.387,11.352,7.395H78.852c0-3.494-4.364-5.067-8.732-5.067-4.25,0-9.141,1.632-8.849,5.589,0,4.307,6.114,4.715,9.374,5.007,5.763.755,11.759,1.805,11.585,8.091,0,5.589-5.706,8.21-12.051,8.21-5.939,0-11.644-2.328-12.283-8.267Z" transform="translate(79.633 0.905)"/></g></g></svg>