<svg xmlns="http://www.w3.org/2000/svg" width="221.624" height="32.619" viewBox="0 0 221.624 32.619"><defs><style>.a{fill:#fff;}</style></defs><g transform="translate(110.812 16.309)"><g transform="translate(-110.812 -16.309)"><path class="a" d="M124,3.865a8.362,8.362,0,0,0-4.456,1.285q3.565,3.326,7.011,7.136-3.449,3.811-7.011,7.136A8.418,8.418,0,1,0,124,3.865" transform="translate(89.199 2.883)"/><path class="a" d="M118.695,15.357a4.673,4.673,0,0,0,0-9.345,8.409,8.409,0,0,0,0,9.345" transform="translate(87.504 4.485)"/><path class="a" d="M108.23,30.72V22.927a9.163,9.163,0,0,0,3.351.688A11.806,11.806,0,1,0,104.4,2.431a1.9,1.9,0,1,0,2.308,3.01,8.012,8.012,0,1,1,4.868,14.378,7.285,7.285,0,0,1-3.351-1.088V18.05a1.9,1.9,0,0,0-3.8,0V30.72a1.9,1.9,0,0,0,3.8,0" transform="translate(77.344 0.001)"/><path class="a" d="M101.192,20.44a11.807,11.807,0,1,0-.009-17.252,11.81,11.81,0,1,0,.009,17.252M94.939,4.019a7.991,7.991,0,0,1,5.925,5.741,1.9,1.9,0,1,0,3.669-.971,11.816,11.816,0,0,0-1.016-2.572,8.017,8.017,0,1,1-2.141,7.032,1.9,1.9,0,0,0-3.737.677,11.818,11.818,0,0,0,1.219,3.487A8.012,8.012,0,1,1,93.122,3.808a7.941,7.941,0,0,1,1.818.211" transform="translate(60.671 0)"/><path class="a" d="M82.269,23.613A11.818,11.818,0,0,1,70.463,11.808v0A11.816,11.816,0,0,1,82.269,0h.019a11.686,11.686,0,0,1,7.157,2.427,1.9,1.9,0,1,1-2.31,3.014,7.661,7.661,0,0,0-.733-.5c-.017-.009-.031-.019-.049-.028A7.987,7.987,0,0,0,82.281,3.8h-.012a8.01,8.01,0,1,0,0,16.021h.012A8.037,8.037,0,0,0,86.353,18.7l.049-.03a8.343,8.343,0,0,0,.733-.5,1.9,1.9,0,1,1,2.31,3.012,11.7,11.7,0,0,1-7.157,2.429h-.019Z" transform="translate(52.575 0.001)"/><path class="a" d="M2.012,16.064c.342,3,3.723,4.365,7.061,4.365,3.381,0,6.847-1.369,6.847-4.323,0-3.552-4.065-3.808-6.8-4.151C5.008,11.486.6,10.758.6,6.522.6,2.242,4.708.658,8.945.658c4.278,0,8.345,1.755,8.345,5.436H15.406c0-2.569-3.209-3.724-6.419-3.724-3.124,0-6.719,1.2-6.5,4.109,0,3.166,4.493,3.466,6.89,3.681,4.236.557,8.643,1.327,8.516,5.947,0,4.109-4.2,6.035-8.858,6.035-4.365,0-8.56-1.711-9.031-6.077Z" transform="translate(0 0.49)"/><path class="a" d="M21.918,21.987c-5.436,0-10.912-3.51-10.912-10.655S16.44.634,21.874.634c5.392,0,10.784,3.594,10.784,10.7,0,7.061-5.35,10.655-10.74,10.655m.042-1.882A8.381,8.381,0,0,0,30.6,11.333a8.51,8.51,0,0,0-8.687-8.86c-4.409,0-8.86,2.911-8.86,8.86,0,5.905,4.5,8.814,8.9,8.773" transform="translate(8.212 0.472)"/><path class="a" d="M23.677.976C27.314.248,28.514,2.045,28.514,5,29.883,2.089,32.493.634,36.087.634A6,6,0,0,1,42.464,5.64C43.62,2.389,46.7.634,50.468.634c5.306,0,6.8,4.065,6.8,8.687v7.318c0,2.4-.215,3.979,3,3.424v1.626c-4.109.814-5.093-.985-5.093-4.749V9.321c0-3.724-1.2-6.89-5.306-6.89-4.236.042-6.719,2.953-6.719,7.189V21.689H41.1V9.62c0-3.936-1.241-7.147-5.523-7.147s-6.93,2.869-6.93,7.147V21.689H26.588V7.268c0-3.766.171-5.092-2.911-4.751Z" transform="translate(17.666 0.472)"/><path class="a" d="M55.7,21.987c-5.436,0-10.913-3.51-10.913-10.655S50.216.634,55.652.634c5.392,0,10.784,3.594,10.784,10.7,0,7.061-5.35,10.655-10.74,10.655m.042-1.882a8.38,8.38,0,0,0,8.643-8.773A8.51,8.51,0,0,0,55.7,2.473c-4.409,0-8.86,2.911-8.86,8.86,0,5.905,4.495,8.814,8.9,8.773" transform="translate(33.413 0.472)"/><path class="a" d="M59.907,16.064c.342,3,3.724,4.365,7.061,4.365,3.379,0,6.845-1.369,6.845-4.323,0-3.552-4.065-3.808-6.8-4.151-4.105-.47-8.516-1.2-8.516-5.434,0-4.28,4.11-5.864,8.347-5.864,4.278,0,8.346,1.755,8.346,5.436H73.3c0-2.569-3.208-3.724-6.417-3.724-3.126,0-6.719,1.2-6.506,4.109,0,3.166,4.495,3.466,6.892,3.681,4.234.557,8.643,1.327,8.514,5.947,0,4.109-4.2,6.035-8.858,6.035-4.365,0-8.56-1.711-9.028-6.077Z" transform="translate(43.199 0.49)"/></g></g></svg>